<?xml version="1.0" standalone="no"?>
<!DOCTYPE svg PUBLIC "-//W3C//DTD SVG 20010904//EN"
 "http://www.w3.org/TR/2001/REC-SVG-20010904/DTD/svg10.dtd">
<svg version="1.0" xmlns="http://www.w3.org/2000/svg"
 width="512.000000pt" height="512.000000pt" viewBox="0 0 512.000000 512.000000"
 preserveAspectRatio="xMidYMid meet">
<metadata>
Created by potrace 1.11, written by Peter Selinger 2001-2013
</metadata>
<g transform="translate(0.000000,512.000000) scale(0.100000,-0.100000)"
fill="#000000" stroke="none">
<path d="M2379 5116 c-2 -2 -35 -6 -74 -10 -38 -3 -97 -10 -130 -16 -33 -6
-76 -13 -95 -16 -61 -10 -262 -62 -335 -87 -459 -159 -817 -404 -1150 -787
-142 -163 -310 -442 -400 -660 -52 -128 -115 -324 -129 -400 -2 -14 -7 -36
-10 -50 -44 -190 -65 -557 -44 -780 68 -712 441 -1369 1028 -1808 312 -234
748 -418 1109 -468 20 -3 79 -11 131 -18 88 -12 496 -14 560 -2 14 2 45 7 70
10 25 4 92 16 150 27 58 12 114 23 126 25 52 10 303 97 391 135 735 322 1277
963 1467 1734 13 55 27 116 30 135 3 19 8 49 11 65 24 141 30 217 30 410 0 99
-3 214 -7 255 -72 717 -441 1369 -1025 1806 -211 158 -485 299 -743 382 -73
24 -247 68 -300 76 -19 3 -44 8 -56 10 -12 2 -45 7 -74 11 -29 4 -62 9 -74 12
-24 5 -452 14 -457 9z m706 -900 c22 -3 60 -8 85 -12 107 -13 335 -71 405
-104 11 -5 55 -25 98 -44 249 -112 489 -317 629 -536 136 -213 231 -490 254
-745 13 -134 7 -410 -11 -504 -1 -9 -6 -36 -10 -61 -14 -85 -16 -95 -41 -182
-102 -364 -272 -619 -545 -821 -205 -151 -489 -260 -764 -293 -22 -3 -51 -8
-65 -11 -14 -4 -505 -8 -1091 -10 l-1065 -4 0 203 1 203 205 5 205 5 0 1256 0
1256 -193 -1 c-106 -1 -199 2 -205 6 -9 5 -12 63 -13 200 0 106 1 196 3 200 5
9 2062 3 2118 -6z"/>
<path d="M2036 3811 c-2 -4 -3 -570 -3 -1259 l0 -1253 411 2 c226 1 438 5 471
9 33 5 76 10 95 13 49 6 155 35 218 58 319 117 542 412 621 822 103 530 -23
1050 -323 1341 -154 149 -337 230 -586 262 -66 8 -900 12 -904 5z"/>
</g>
</svg>
